<svg id="Lager_1" data-name="Lager 1" xmlns="http://www.w3.org/2000/svg" viewBox="0 0 281.57 280.27"><defs><style>.cls-1{fill:none;stroke:#000;stroke-miterlimit:10;stroke-width:5px;}.cls-10,.cls-11,.cls-12,.cls-13,.cls-14,.cls-2,.cls-3,.cls-4,.cls-5,.cls-6,.cls-7,.cls-8,.cls-9{isolation:isolate;font-family:Arial-BoldMT, Arial;font-weight:700;}.cls-10,.cls-2{font-size:33.56px;}.cls-3,.cls-4,.cls-7{font-size:33.56px;}.cls-3{letter-spacing:-0.04em;}.cls-5{font-size:33.46px;}.cls-6{font-size:33.66px;}.cls-7{letter-spacing:-0.04em;}.cls-8{font-size:33.43px;}.cls-9{font-size:33.64px;}.cls-10{letter-spacing:-0.04em;}.cls-11{font-size:33.65px;}.cls-12{font-size:33.64px;}.cls-13{font-size:33.6px;}.cls-14{font-size:33.55px;}</style></defs><ellipse cx="116.93" cy="101.23" rx="12.3" ry="23.12"/><ellipse cx="160.92" cy="101.23" rx="12.3" ry="23.12"/><path class="cls-1" d="M192.1,136a54.53,54.53,0,1,1-107,.64" transform="translate(0.86 3.23)"/><line class="cls-1" x1="76.1" y1="136.17" x2="97.73" y2="140"/><line class="cls-1" x1="203.32" y1="135.17" x2="181.69" y2="139"/><circle class="cls-1" cx="139.67" cy="138.89" r="95.45"/><text class="cls-2" transform="matrix(0.29, -0.96, 0.96, 0.28, 27.64, 121.82)">C</text><text class="cls-2" transform="translate(34.62 97.88) rotate(-60.36)">R</text><text class="cls-2" transform="translate(46.96 76.17) rotate(-48.01)">E</text><text class="cls-3" transform="translate(62.29 58.83) rotate(-35.88)">A</text><text class="cls-4" transform="matrix(0.91, -0.42, 0.42, 0.91, 80.64, 45.28)">T</text><text class="cls-4" transform="translate(101.98 35.75) rotate(-16.09)">I</text><text class="cls-5" transform="matrix(0.99, -0.12, 0.12, 0.99, 113.57, 31.79)">V</text><text class="cls-6" transform="translate(138.43 28.79) rotate(4.57)">E</text><text class="cls-4" transform="matrix(0.93, 0.37, -0.37, 0.93, 171.99, 32.9)">C</text><text class="cls-4" transform="translate(195.23 42.02) rotate(34.88)">H</text><text class="cls-7" transform="matrix(0.67, 0.74, -0.74, 0.67, 217.23, 57.3)">A</text><text class="cls-2" transform="translate(234 75.81) rotate(60.24)">S</text><text class="cls-8" transform="translate(245.6 95.83) rotate(72.47)">E</text><text class="cls-4" transform="translate(253.86 157.05) rotate(105.78)">C</text><text class="cls-9" transform="translate(247.21 181.08) rotate(118.61)">R</text><text class="cls-2" transform="matrix(-0.66, 0.75, -0.75, -0.66, 235.15, 202.95)">E</text><text class="cls-10" transform="translate(220.04 220.49) rotate(143.39)">A</text><text class="cls-4" transform="translate(201.88 234.27) rotate(154.31)">T</text><text class="cls-11" transform="translate(180.66 244.07) rotate(163.19)">I</text><text class="cls-2" transform="matrix(-0.99, 0.13, -0.13, -0.99, 169.12, 248.18)">V</text><text class="cls-12" transform="translate(144.31 251.48) rotate(-176)">E</text><text class="cls-2" transform="matrix(-0.93, -0.36, 0.36, -0.93, 110.68, 247.79)">C</text><text class="cls-13" transform="matrix(-0.83, -0.56, 0.56, -0.83, 87.33, 238.97)">H</text><text class="cls-7" transform="translate(65.14 223.96) rotate(-132.85)">A</text><text class="cls-14" transform="translate(48.13 205.67) rotate(-120.67)">S</text><text class="cls-2" transform="matrix(-0.32, -0.95, 0.95, -0.32, 36.27, 185.8)">E</text><circle cx="15.7" cy="139.36" r="4.47"/><circle cx="263.64" cy="139.36" r="4.47"/></svg>