<svg id="Lager_1" data-name="Lager 1" xmlns="http://www.w3.org/2000/svg" viewBox="0 0 1508.67 1497.16"><defs><style>.cls-1{fill:none;stroke:#000;stroke-miterlimit:10;stroke-width:40px;}.cls-2{font-size:180px;font-family:Arial-Black, Arial Black;font-weight:800;}</style></defs><ellipse cx="626.37" cy="539.8" rx="66" ry="124"/><ellipse cx="862.37" cy="539.8" rx="66" ry="124"/><path class="cls-1" d="M1105.81,805.55a294.3,294.3,0,0,1,5.94,59c0,161.54-131,292.5-292.5,292.5s-292.5-131-292.5-292.5A294.12,294.12,0,0,1,532,809" transform="translate(-71.63 -62.2)"/><line class="cls-1" x1="407.37" y1="721.84" x2="523.37" y2="742.39"/><line class="cls-1" x1="1089.77" y1="721.84" x2="973.77" y2="742.39"/><circle class="cls-1" cx="748.37" cy="741.8" r="512"/><text class="cls-2" transform="matrix(0.29, -0.96, 0.96, 0.28, 147.39, 650.23)">C</text><text class="cls-2" transform="translate(184.83 521.84) rotate(-60.36)">R</text><text class="cls-2" transform="translate(251.04 405.36) rotate(-48.01)">E</text><text class="cls-2" transform="translate(333.28 312.32) rotate(-35.88)">A</text><text class="cls-2" transform="translate(431.68 239.64) rotate(-24.96)">T</text><text class="cls-2" transform="translate(546.18 188.51) rotate(-16.09)">I</text><text class="cls-2" transform="matrix(0.99, -0.12, 0.12, 0.99, 608.32, 167.28)">V</text><text class="cls-2" transform="matrix(1, 0.08, -0.08, 1, 741.68, 151.19)">E</text><text class="cls-2" transform="translate(866.65 163.9) rotate(13.13)"> </text><text class="cls-2" transform="translate(921.74 173.22) rotate(21.98)">C</text><text class="cls-2" transform="translate(1046.4 222.16) rotate(34.88)">H</text><text class="cls-2" transform="translate(1164.38 304.15) rotate(47.89)">A</text><text class="cls-2" transform="translate(1254.37 403.45) rotate(60.24)">S</text><text class="cls-2" transform="matrix(0.3, 0.95, -0.95, 0.3, 1316.56, 510.84)">E</text><text class="cls-2" transform="translate(1360.9 839.19) rotate(105.78)">C</text><text class="cls-2" transform="matrix(-0.48, 0.88, -0.88, -0.48, 1325.19, 968.09)">R</text><text class="cls-2" transform="translate(1260.53 1085.42) rotate(131.25)">E</text><text class="cls-2" transform="translate(1179.49 1179.52) rotate(143.39)">A</text><text class="cls-2" transform="translate(1082.04 1253.43) rotate(154.31)">T</text><text class="cls-2" transform="matrix(-0.96, 0.29, -0.29, -0.96, 968.22, 1306)">I</text><text class="cls-2" transform="translate(906.34 1328.02) rotate(172.43)">V</text><text class="cls-2" transform="matrix(-1, -0.07, 0.07, -1, 773.22, 1345.76)">E</text><text class="cls-2" transform="translate(648.07 1334.6) rotate(-167.6)"> </text><text class="cls-2" transform="translate(592.86 1325.98) rotate(-158.75)">C</text><text class="cls-2" transform="matrix(-0.83, -0.56, 0.56, -0.83, 467.58, 1278.62)">H</text><text class="cls-2" transform="translate(348.57 1198.13) rotate(-132.85)">A</text><text class="cls-2" transform="matrix(-0.51, -0.86, 0.86, -0.51, 257.31, 1100.01)">S</text><text class="cls-2" transform="translate(193.71 993.44) rotate(-108.38)">E</text><circle cx="83.37" cy="744.3" r="24"/><circle cx="1413.37" cy="744.3" r="24"/></svg>